<svg height="512pt" viewBox="-38 0 512 512" width="512pt" xmlns="http://www.w3.org/2000/svg"><path d="m270.019531 236c0 4.144531 3.359375 7.5 7.5 7.5 4.144531 0 7.5-3.355469 7.5-7.5v-2.5h49.925781l2.0625 17.382812c.492188 4.15625 4.269532 7.054688 8.332032 6.5625 4.113281-.484374 7.050781-4.214843 6.5625-8.328124l-2.847656-24c-.449219-3.773438-3.648438-6.617188-7.449219-6.617188h-248.214844c-3.800781 0-7 2.84375-7.445313 6.617188l-2.847656 24c-.488281 4.113281 2.449219 7.84375 6.5625 8.328124 4.101563.488282 7.84375-2.449218 8.332032-6.5625l2.0625-17.382812h49.957031v2.5c0 4.144531 3.359375 7.5 7.5 7.5 4.144531 0 7.5-3.355469 7.5-7.5v-2.5h105.007812zm0 0"/><path d="m96.238281 203.5h242.519531c4.558594 0 7.871094-4.011719 7.472657-8.210938-.375-3.894531-3.652344-6.789062-7.472657-6.789062h-53.746093v-15h49.476562c4.632813.859375 9.285157-2.59375 8.890625-8.210938-.367187-3.867187-3.578125-6.789062-7.46875-6.789062h-236.820312c-3.890625 0-7.101563 2.921875-7.472656 6.789062l-2.839844 30c-.199219 2.101563.492187 4.191407 1.910156 5.75 1.421875 1.570313 3.441406 2.460938 5.550781 2.460938zm128.769531-30h45.003907v15h-45.003907zm-60.003906 0h45.003906v15h-45.003906zm-59.09375 0h44.09375v15h-45.515625zm0 0"/><path d="m101.9375 143.5h231.121094c3.390625 0 7.5-2.792969 7.5-7.5 0-3.535156-2.511719-7.5-7.5-7.5h-48.054688v-15h43.796875c5.261719 0 9.269531-2.59375 8.878907-8.210938-.371094-3.867187-3.582032-6.789062-7.46875-6.789062h-225.421876c-3.890624 0-7.101562 2.921875-7.472656 6.789062l-2.847656 30c-.199219 2.101563.5 4.199219 1.917969 5.761719 1.421875 1.558594 3.441406 2.449219 5.550781 2.449219zm123.0625-30h45.003906v15h-45.003906zm-60.003906 0h45.003906v15h-45.003906zm-53.386719 0h38.386719v15h-39.816406zm0 0"/><path d="m420 321.5h-15v-30.832031c0-3.570313-2.519531-6.648438-6.023438-7.355469l-14.535156-2.917969-18.183594-191.523437c-1.105468-11.613282-10.734374-20.371094-22.402343-20.371094h-63.855469v-7.5c0-12.40625-10.09375-22.5-22.5-22.5h-32.5v-23.5h7.5c4.140625 0 7.5-3.355469 7.5-7.5s-3.359375-7.5-7.5-7.5h-30c-4.144531 0-7.5 3.355469-7.5 7.5s3.355469 7.5 7.5 7.5h7.5v23.5h-32.5c-12.40625 0-22.5 10.09375-22.5 22.5v7.5h-63.855469c-11.667969 0-21.296875 8.757812-22.402343 20.371094l-18.183594 191.523437-14.535156 2.921875c-3.503907.703125-6.023438 3.78125-6.023438 7.351563v30.832031h-15c-8.269531 0-15 6.730469-15 15v4.136719c0 5.046875.175781 10.160156.523438 15.191406 1.445312 20.863281 17.570312 37.582031 37.785156 40.28125 4.910156 16.007813 11.960937 31.371094 21.03125 45.679687 19.195312 30.28125 46.464844 54.316407 78.851562 69.5.996094.46875 2.085938.710938 3.1875.710938h152.242188c1.101562 0 2.191406-.242188 3.1875-.710938 32.386718-15.183593 59.65625-39.21875 78.851562-69.5 9.070313-14.3125 16.121094-29.671874 21.03125-45.679687 20.214844-2.699219 36.339844-19.417969 37.785156-40.28125.347657-5.03125.523438-10.144531.523438-15.191406v-4.136719c0-8.269531-6.730469-15-15-15zm-404.511719 33.292969c-.324219-4.6875-.488281-9.453125-.488281-14.15625v-4.136719h15v4.136719c0 13.203125 1.375 26.277343 4.066406 39.042969-10.226562-3.847657-17.785156-13.410157-18.578125-24.886719zm154.511719-293.792969c0-4.136719 3.363281-7.5 7.5-7.5h80c4.136719 0 7.5 3.363281 7.5 7.5v7.5h-95zm-86.324219 29.289062c.367188-3.867187 3.578125-6.789062 7.46875-6.789062h252.710938c3.890625 0 7.101562 2.921875 7.46875 6.789062l17.753906 187.019532-148.714844-29.882813c-1.898437-.382812-3.820312-.382812-5.71875 0l-148.722656 29.882813zm306.324219 250.347657c0 66.511719-38.4375 127.699219-98.066406 156.363281h-66.933594v-212.5c0-4.140625-3.371094-7.5-7.5-7.5-4.140625 0-7.5 3.359375-7.5 7.5v212.5h-66.933594c-59.632812-28.664062-98.066406-89.855469-98.066406-156.363281v-43.824219l172.5-34.664062 158.546875 31.859374c.023437.003907.046875.007813.066406.011719l13.886719 2.789063zm30 0c0 4.703125-.164062 9.46875-.488281 14.15625-.796875 11.476562-8.351563 21.039062-18.578125 24.886719 2.6875-12.765626 4.066406-25.839844 4.066406-39.042969v-4.136719h15zm0 0"/></svg>